<svg width="48" height="48" viewBox="0 0 48 48" xmlns="http://www.w3.org/2000/svg"><g fill="none" fill-rule="evenodd"><rect width="48" height="48"/><path d="M31.9999916,0 C32.6903468,0 33.2499902,0.565535053 33.2499902,1.26315789 L33.2499902,1.26315789 L33.2499902,5.05263158 C33.2475761,5.98803347 32.8999072,6.888877 32.2749913,7.57894737 C32.600048,7.94957694 32.8543391,8.37785718 33.0249904,8.84210526 L33.0249904,8.84210526 L33.2499902,8.84210526 C35.3210557,8.84210526 36.999986,10.5387104 36.999986,12.6315789 C36.999986,14.7244475 35.3210557,16.4210526 33.2499902,16.4210526 L33.2499902,16.4210526 L33.1499903,16.4210526 C32.8037961,18.8405792 31.482709,21.0076596 29.4999944,22.4084211 L29.4999944,22.4084211 L29.4999944,23.6210526 L30.2124936,24.6947368 L38.0749848,27.8652632 C40.4495779,28.8269225 42.0044998,31.1538347 41.9999902,33.7389474 L41.9999902,33.7389474 L41.9999902,46.7368421 C41.9999902,47.4344649 41.440337,48 40.7499818,48 L40.7499818,48 L8.25001821,48 C7.55966304,48 7.00000978,47.4344649 7.00000978,46.7368421 L7.00000978,46.7368421 L7.00000978,33.7389474 C6.9955002,31.1538347 8.55042207,28.8269225 10.9250152,27.8652632 L10.9250152,27.8652632 L18.7875064,24.6947368 L19.5000098,23.6210526 L19.5000098,22.4084211 C17.517291,21.0076596 16.1962039,18.8405792 15.8500097,16.4210526 L15.8500097,16.4210526 L15.7500098,16.4210526 C13.6789443,16.4210526 12.0000098,14.7244475 12.0000098,12.6315789 C12.0000098,10.5387104 13.6789443,8.84210526 15.7500098,8.84210526 L15.7500098,8.84210526 L15.7500098,5.05263158 C15.7500098,2.26214021 17.9885835,0 20.7500042,0 L20.7500042,0 Z M17.0375084,28.1178947 L11.8500142,30.2147368 C10.4272222,30.7933342 9.49648679,32.1891262 9.5000068,33.7389474 L9.5000068,33.7389474 L9.5000068,45.4736842 L12.0000068,45.4736842 L12.0000068,32.8421053 C12.0041325,31.4485871 13.1210104,30.3199513 14.5000068,30.3157895 L14.5000068,30.3157895 L17.4750079,30.3157895 L17.0375084,28.1178947 Z M34.4999888,32.8421053 L14.5000112,32.8421053 L14.5000112,45.4736842 L34.4999888,45.4736842 L34.4999888,32.8421053 Z M31.9624916,28.1178947 L31.5249921,30.3157895 L34.4999888,30.3157895 C35.8789896,30.3199513 36.9958675,31.4485871 36.999986,32.8421053 L36.999986,32.8421053 L36.999986,45.4736842 L39.4999932,45.4736842 L39.4999932,33.7389474 C39.5035132,32.1891262 38.5727778,30.7933342 37.1499858,30.2147368 L37.1499858,30.2147368 L31.9624916,28.1178947 Z M24.5,35.3684211 C26.5710655,35.3684211 28.2500042,37.0650262 28.2500042,39.1578947 C28.2500042,41.2507633 26.5710655,42.9473684 24.5,42.9473684 C22.4289345,42.9473684 20.7500042,41.2507633 20.7500042,39.1578947 C20.7500042,37.0650262 22.4289345,35.3684211 24.5,35.3684211 Z M24.5,37.8947368 C23.8096448,37.8947368 23.2500014,38.4602719 23.2500014,39.1578947 C23.2500014,39.8555176 23.8096448,40.4210526 24.5,40.4210526 C25.1903552,40.4210526 25.7500014,39.8555176 25.7500014,39.1578947 C25.7500014,38.4602719 25.1903552,37.8947368 24.5,37.8947368 Z M20.7000043,26.3621053 L19.5750055,28.0547368 L20.025005,30.3157895 L22.4250023,30.3157895 L22.8500018,29.9873684 L20.7000043,26.3621053 Z M28.2999957,26.3621053 L26.1499982,29.9873684 L26.5749977,30.3157895 L28.974995,30.3157895 L29.4249945,28.0547368 L28.2999957,26.3621053 Z M27.0000028,23.6336842 C25.3683694,24.1220728 23.6316306,24.1220728 22.0000028,23.6336842 L22.0000028,23.6336842 L22.0000028,23.6463158 L24.5000028,27.8652632 L27.0000028,23.6463158 Z M29.4999944,8.84210526 L19.5000056,8.84210526 C18.8096504,8.84210526 18.250007,9.40764032 18.250007,10.1052632 L18.250007,10.1052632 L18.250007,15.1578947 C18.250007,18.6460089 21.0482242,21.4736842 24.5,21.4736842 C27.9517758,21.4736842 30.749993,18.6460089 30.749993,15.1578947 L30.749993,15.1578947 L30.749993,10.1052632 C30.749993,9.40764032 30.1903496,8.84210526 29.4999944,8.84210526 L29.4999944,8.84210526 Z M33.2499902,11.3684211 L33.2499902,13.8947368 C33.9403454,13.8947368 34.4999888,13.3292018 34.4999888,12.6315789 C34.4999888,11.9339561 33.9403454,11.3684211 33.2499902,11.3684211 L33.2499902,11.3684211 Z M15.7500098,11.3684211 C15.0596546,11.3684211 14.5000112,11.9339561 14.5000112,12.6315789 C14.5000112,13.3292018 15.0596546,13.8947368 15.7500098,13.8947368 L15.7500098,13.8947368 Z M30.749993,2.52631579 L20.750007,2.52631579 C19.3710034,2.53047764 18.2541255,3.65911343 18.250007,5.05263158 L18.250007,5.05263158 L18.250007,6.54315789 C18.6508491,6.39609784 19.073577,6.31920576 19.5000056,6.31578947 L19.5000056,6.31578947 L29.4999944,6.31578947 C30.1903496,6.31578947 30.749993,5.75025442 30.749993,5.05263158 L30.749993,5.05263158 L30.749993,2.52631579 Z" fill="#000" fill-rule="nonzero"/></g></svg>