<svg width="48" height="48" viewBox="0 0 48 48" xmlns="http://www.w3.org/2000/svg"><g fill="none" fill-rule="evenodd"><rect width="48" height="48"/><path d="M6.43852978,8 L30.1444867,8.00508058 L30.1444867,10.596178 L39.9442332,10.596178 L44.8466413,20.945326 L48,25.0097925 L48,36.3902989 L42.0633714,36.3902989 C41.5639353,39.0629946 39.2355159,41 36.52218,41 C33.808844,41 31.4804246,39.0629946 30.9809886,36.3902989 L30.9809886,36.3902989 L20.9328264,36.3902989 C20.4333903,39.0629946 18.1049709,41 15.391635,41 C12.678299,41 10.3498796,39.0629946 9.8504436,36.3902989 L9.8504436,36.3902989 L6.43852978,36.3902989 L6.43852978,34.3580656 L9.86565272,34.3580656 C10.3417592,31.6620449 12.6798591,29.6971916 15.4119138,29.6971916 C18.1439685,29.6971916 20.4820684,31.6620449 20.9581749,34.3580656 L20.9581749,34.3580656 L30.991128,34.3580656 C31.4672345,31.6620449 33.8053344,29.6971916 36.5373891,29.6971916 C39.2694438,29.6971916 41.6075437,31.6620449 42.0836502,34.3580656 L42.0836502,34.3580656 L45.9873257,34.3580656 L45.9873257,25.6855101 L43.4524715,22.4390174 L28.1166033,22.4390174 L28.1166033,10.0322333 L6.43852978,10.0322333 L6.43852978,8 Z M16.7682987,32.0035269 C15.4177407,31.4412384 13.862162,31.7499051 12.827313,32.7855194 C11.792464,33.8211337 11.4822751,35.3796143 12.0414639,36.7338571 C12.6006528,38.0880999 13.919024,38.9712351 15.3814956,38.9712351 C17.3758623,38.9712351 18.9934006,37.3525026 18.9962013,35.3538599 C18.9982489,33.8882527 18.1188566,32.5658154 16.7682987,32.0035269 Z M37.9039134,32.0035269 C36.5533554,31.4412384 34.9977767,31.7499051 33.9629277,32.7855194 C32.9280787,33.8211337 32.6178898,35.3796143 33.1770786,36.7338571 C33.7362675,38.0880999 35.0546387,38.9712351 36.5171103,38.9712351 L36.5171103,38.9712351 C38.5145671,38.9684367 40.12902,37.3505208 40.131816,35.3538599 C40.1338636,33.8882527 39.2544713,32.5658154 37.9039134,32.0035269 Z M10.6463878,26.5339675 L10.6463878,28.5662008 L2.53485425,28.5662008 L2.53485425,26.5339675 L10.6463878,26.5339675 Z M14.1951838,20.4372677 L14.1951838,22.4695009 L0,22.4695009 L0,20.4372677 L14.1951838,20.4372677 Z M38.661597,12.6284113 L30.1444867,12.6284113 L30.1444867,20.4118647 L42.3624842,20.4118647 L38.661597,12.6284113 Z M16.730038,14.3405678 L16.730038,16.3728011 L2.53485425,16.3728011 L2.53485425,14.3405678 L16.730038,14.3405678 Z" fill="#000" fill-rule="nonzero"/></g></svg>
