<svg width="48" height="48" viewBox="0 0 48 48" xmlns="http://www.w3.org/2000/svg"><g fill="none" fill-rule="evenodd"><rect width="48" height="48"/><path d="M1.0669184,3.00003418 C0.477659368,3.00003418 0,3.48136221 0,4.07506815 C0,4.6687741 0.477659368,5.15006737 1.0669184,5.15006737 L7.66847574,5.15006737 L13.2864413,31.890689 C13.4227401,32.5513298 13.8607101,33.1070506 14.4033981,33.1001566 L41.0763582,33.1001566 C41.6400111,33.1081256 42.1584801,32.5930935 42.1584801,32.0250639 C42.1584801,31.4570881 41.6400111,30.942056 41.0763582,30.9500647 L15.2702693,30.9500647 L14.3700569,26.6500678 L43.210195,26.6500678 C43.6879077,26.6446928 44.1392675,26.2798919 44.2437722,25.8102247 L47.9779866,9.68522569 C48.1167393,9.06133915 47.5789591,8.37963914 46.9444094,8.3750704 L10.5358189,8.3750704 L9.58562141,3.83991207 C9.4798898,3.36477317 9.01860763,2.99591406 8.53534694,3.00003418 L1.0669184,3.00003418 Z M10.9859518,10.5250688 L20.4381553,10.5250688 L21.4216941,16.4375484 L12.2362201,16.4375484 L10.9859518,10.5250688 Z M22.5886894,10.5250688 L33.9579853,10.5250688 L32.9744465,16.4375484 L23.5722281,16.4375484 L22.5886894,10.5250688 Z M36.1085194,10.5250688 L45.6107614,10.5250688 L44.2437722,16.4375484 L35.1249806,16.4375484 L36.1085194,10.5250688 Z M12.6862997,18.5875468 L21.7718033,18.5875468 L22.7553421,24.5000694 L13.9199774,24.5000694 L12.6862997,18.5875468 Z M23.9389813,18.5875468 L32.6076933,18.5875468 L31.6407985,24.5000694 L24.9058761,24.5000694 L23.9389813,18.5875468 Z M34.7748713,18.5875468 L43.7436542,18.5875468 L42.3599677,24.5000694 L33.7913326,24.5000694 L34.7748713,18.5875468 Z M20.2714493,36.325007 C17.6325334,36.325007 15.4703165,38.5035467 15.4703165,41.1625035 C15.4703165,43.8214603 17.6325334,46 20.2714493,46 C22.9104187,46 25.0725821,43.8214603 25.0725821,41.1625035 C25.0725821,38.5035467 22.9104187,36.325007 20.2714493,36.325007 Z M35.2083069,36.325007 C32.569391,36.325007 30.4071741,38.5035467 30.4071741,41.1625035 C30.4071741,43.8214603 32.569391,46 35.2083069,46 C37.8472763,46 40.0094398,43.8214603 40.0094398,41.1625035 C40.0094398,38.5035467 37.8472763,36.325007 35.2083069,36.325007 Z M20.2714493,38.4750055 C21.7571866,38.4750055 22.9387453,39.6655134 22.9387453,41.1625035 C22.9387453,42.6594937 21.7571866,43.8500016 20.2714493,43.8500016 C18.7857655,43.8500016 17.6041533,42.6594937 17.6041533,41.1625035 C17.6041533,39.6655134 18.7857655,38.4750055 20.2714493,38.4750055 Z M35.2083069,38.4750055 C36.6940442,38.4750055 37.875603,39.6655134 37.875603,41.1625035 C37.875603,42.6594937 36.6940442,43.8500016 35.2083069,43.8500016 C33.7226231,43.8500016 32.5410109,42.6594937 32.5410109,41.1625035 C32.5410109,39.6655134 33.7226231,38.4750055 35.2083069,38.4750055 Z" fill="#000" fill-rule="nonzero"/></g></svg>