<svg width="48" height="48" viewBox="0 0 48 48" xmlns="http://www.w3.org/2000/svg"><g fill="none"><rect width="48" height="48"/><path d="M5.09320311,0.250587768 C5.42740035,-0.083529256 5.9691341,-0.083529256 6.30333134,0.250587768 L6.30333134,0.250587768 L8.72358779,2.67185005 C8.76238737,2.71792909 8.7959687,2.76816069 8.82371863,2.82162767 C8.84083501,2.84901558 8.86993286,2.86527715 8.88448179,2.89352093 L8.88448179,2.89352093 L11.2431193,7.61194403 L22.490294,18.8563922 L27.5285012,13.8178729 C27.4557565,13.5816522 27.3941376,13.3454315 27.3410768,13.1049314 C26.4150051,8.75126023 28.6642975,4.34387633 32.7330497,2.53961132 C36.8018018,0.735346316 41.5781063,2.02726922 44.1827411,5.63659113 C44.3510928,5.87078273 44.3901717,6.17402342 44.2866957,6.44324996 C44.1832198,6.7124765 43.9511083,6.91147358 43.6692496,6.97260754 L43.6692496,6.97260754 L36.8013013,8.44556349 L36.0849807,11.2245803 L37.8762101,13.4643977 L44.7527166,11.9922976 C45.0349956,11.932211 45.3285451,12.0184506 45.5334785,12.2216716 C45.7384119,12.4248925 45.8271245,12.7177207 45.7694297,13.000515 C45.2309497,15.6671802 43.5636423,17.9697551 41.1982497,19.3133787 C38.8328571,20.6570023 36.0013966,20.9098809 33.4353647,20.0066843 L33.4353647,20.0066843 L28.5366561,24.9056964 L31.1160949,27.4844392 L33.5372072,25.0631769 C33.8714044,24.7290599 34.4131382,24.7290599 34.7473354,25.0631769 L34.7473354,25.0631769 L36.5608161,26.87677 C36.6543151,26.9706942 36.7248948,27.0849175 36.7670685,27.2105601 L36.7670685,27.2105601 L37.3096578,28.8367172 L46.2452652,37.7720223 C48.5849116,40.1118137 48.5849116,43.9053651 46.2452652,46.2451565 C43.9056187,48.5849478 40.1123024,48.5849478 37.772656,46.2451565 L37.772656,46.2451565 L28.8379044,37.3098513 L27.2118481,36.7689401 C27.0856518,36.7270051 26.9710436,36.6560667 26.8772228,36.5618191 L26.8772228,36.5618191 L25.0620305,34.7465143 C24.7279342,34.4122963 24.7279342,33.870529 25.0620305,33.5363111 L25.0620305,33.5363111 L27.4831428,31.1150488 L24.9054156,28.5371619 L18.369525,35.0820162 C19.7971224,39.4870295 17.8096546,44.2762155 13.6826885,46.3758509 C9.5557223,48.4754863 4.51475699,47.2620859 1.79510915,43.5144162 C-0.924538701,39.7667466 -0.515271846,34.597675 2.76024021,31.3247375 C5.26239218,28.8267304 8.95227667,27.9397285 12.3163164,29.0275767 L12.3163164,29.0275767 L18.8564861,22.4870018 L7.61273458,11.2425536 L2.89460381,8.88377002 C2.8672176,8.87007607 2.85181286,8.84268816 2.8269941,8.82642659 C2.77145107,8.79814579 2.71945422,8.76338331 2.67209084,8.72286606 L2.67209084,8.72286606 L0.25183439,6.30245965 C-0.0822619344,5.96824171 -0.0822619344,5.42647439 0.25183439,5.09225645 L0.25183439,5.09225645 Z M34.1405596,26.8742024 L31.7177357,29.3005999 L29.2974793,31.7210063 L26.8772228,34.1414127 L27.9444293,35.2086852 L29.5704856,35.7504523 C29.6963748,35.7920849 29.8107091,35.862742 29.904255,35.9567175 L29.904255,35.9567175 L38.9827842,45.029818 C40.6559822,46.688527 43.3551407,46.6826162 45.0210588,45.0165948 C46.6869769,43.3505735 46.6928874,40.6512478 45.0342811,38.9779461 L45.0342811,38.9779461 L36.5616719,30.504812 L35.3506879,31.7150152 L42.0072489,38.3728445 C42.3315806,38.7086707 42.3269422,39.2424832 41.9968238,39.572622 C41.6667055,39.9027608 41.1329261,39.9073995 40.7971207,39.5830477 L40.7971207,39.5830477 L33.5354955,32.3209726 C33.3747923,32.1604382 33.2844952,31.9425995 33.2844952,31.7154431 C33.2844952,31.4882867 33.3747923,31.270448 33.5354955,31.1099136 L33.5354955,31.1099136 L35.5826148,29.0635233 L35.2077661,27.9414749 L34.1405596,26.8742024 Z M20.0666143,23.6980609 L13.1438935,30.6212106 C12.9034935,30.8599275 12.5442493,30.9348027 12.2281671,30.8112142 C8.83341659,29.477103 4.96839623,30.7071746 2.96901438,33.7580086 C0.969632531,36.8088426 1.38413737,40.8438735 3.96201397,43.4244433 C6.53989056,46.005013 10.5742624,46.4235066 13.6268697,44.4269985 C16.6794771,42.4304903 17.9132682,38.5664405 16.5825747,35.170171 C16.4594276,34.8537369 16.5349798,34.494422 16.775134,34.2543878 L16.775134,34.2543878 L23.6961432,27.3286705 L20.0666143,23.6980609 Z M10.3008624,33.0219319 C10.5958285,32.9429184 10.9105458,33.0270656 11.1267279,33.2427469 L11.1267279,33.2427469 L14.1546159,36.2682549 C14.3708951,36.4844507 14.4553933,36.7996254 14.376273,37.0950274 L14.376273,37.0950274 L13.2679873,41.2288899 C13.1888402,41.5241861 12.9582012,41.7548395 12.6629232,41.8339915 L12.6629232,41.8339915 L8.53017267,42.94149 C8.23494366,43.0219374 7.91925793,42.9376186 7.70345141,42.720675 L7.70345141,42.720675 L4.67299593,39.6943111 C4.45671668,39.4781153 4.37221855,39.1629406 4.45133878,38.8675386 L4.45133878,38.8675386 L5.56304781,34.7336762 C5.6421949,34.4383799 5.87283394,34.2077266 6.16811192,34.1285746 L6.16811192,34.1285746 Z M31.7198753,33.2852952 C31.9470176,33.2852952 32.1648428,33.3755979 32.3253673,33.5363111 L32.3253673,33.5363111 L39.5869925,40.7983862 C39.9113241,41.1342123 39.9066857,41.6680248 39.5765674,41.9981636 C39.246449,42.3283024 38.7126696,42.3329411 38.3768642,42.0085894 L38.3768642,42.0085894 L31.1143833,34.7465143 C30.7802869,34.4122963 30.7802869,33.870529 31.1143833,33.5363111 C31.2749078,33.3755979 31.492733,33.2852952 31.7198753,33.2852952 Z M10.2709087,34.8030018 L7.09154074,35.6571622 L6.23572163,38.8358714 L8.56354962,41.1629877 L11.7420618,40.3113949 L12.5987367,37.1292623 L10.2709087,34.8030018 Z M10.5387801,9.32882353 L9.32950772,10.5381709 L20.6545621,21.8647827 C20.6605528,21.8707738 20.6682552,21.8724856 20.6751017,21.8784767 C20.6819483,21.8844678 20.6836599,21.8930265 20.6896506,21.8998735 L20.6896506,21.8998735 L28.6941268,29.9048456 L29.904255,28.6946424 L21.9014905,20.6905262 C21.8931914,20.6858925 21.8851883,20.6807473 21.8775276,20.6751205 C21.8715368,20.6682735 21.8689694,20.6588589 21.8629786,20.6520119 L21.8629786,20.6520119 L10.5387801,9.32882353 Z M41.9011274,5.6006445 C39.4654686,3.2448335 35.7763958,2.75757499 32.8126791,4.40022802 C29.8489625,6.04288105 28.3067837,9.42958378 29.0133473,12.7437534 C29.0864931,13.0833644 29.1851932,13.416963 29.3086049,13.7417003 C29.4277364,14.056434 29.3513812,14.4117754 29.1134782,14.6497806 L29.1134782,14.6497806 L23.6952874,20.0631719 L27.3248162,23.6929256 L32.6172016,18.4002123 C32.8631303,18.1540712 33.2335888,18.0813283 33.5543235,18.2161998 C35.4611365,19.0244381 37.6134243,19.0288377 39.5235252,18.2284017 C41.4336261,17.4279657 42.9398485,15.8904517 43.700915,13.964227 L43.700915,13.964227 L37.7144603,15.2480352 C37.3974561,15.3156471 37.0694603,15.1983565 36.8671993,14.9450565 L36.8671993,14.9450565 L34.479464,11.9589186 C34.311735,11.7488202 34.2524673,11.4721148 34.3194258,11.2117422 L34.3194258,11.2117422 L35.2728083,7.50923937 C35.3532608,7.19459571 35.6048568,6.95259771 35.922375,6.88445271 L35.922375,6.88445271 Z M7.88402924,4.72423143 L6.30333134,6.30502727 L4.72263344,7.88325549 L7.94992731,9.49999796 L9.50067155,7.94915765 L7.88402924,4.72423143 Z M5.69826723,2.06846019 L2.06702673,5.69735805 L3.27715496,6.90756126 L5.09320311,5.09225645 L6.90839545,3.27951926 L5.69826723,2.06846019 Z" fill="#000"/></g></svg>