<svg width="48" height="48" viewBox="0 0 48 48" xmlns="http://www.w3.org/2000/svg"><g fill="none" fill-rule="evenodd"><rect width="48" height="48"/><path d="M26,0 C26.55,0 27,0.45 27,1 L27,12 L46,12 C46.55,12 47,12.45 47,13 L47,47 C47,47.55 46.55,48 46,48 L2,48 C1.448,48 1,47.55 1,47 L1,1 C1,0.45 1.448,0 2,0 L26,0 Z M25,2 L3,2 L3,46 L7,46 L7,37 C7,36.45 7.448,36 8,36 L20,36 C20.552,36 21,36.45 21,37 L21,46 L25,46 L25,2 Z M45,14 L27,14 L27,46 L45,46 L45,14 Z M19,38 L9,38 L9,46 L19,46 L19,38 Z M42,32 C42.55,32 43,32.45 43,33 L43,41 C43,41.55 42.55,42 42,42 L30,42 C29.45,42 29,41.55 29,41 L29,33 C29,32.45 29.45,32 30,32 L42,32 Z M41,34 L31,34 L31,40 L41,40 L41,34 Z M12,20 C12.552,20 13,20.45 13,21 L13,31 C13,31.55 12.552,32 12,32 L6,32 C5.448,32 5,31.55 5,31 L5,21 C5,20.45 5.448,20 6,20 L12,20 Z M22,20 C22.552,20 23,20.45 23,21 L23,31 C23,31.55 22.552,32 22,32 L16,32 C15.448,32 15,31.55 15,31 L15,21 C15,20.45 15.448,20 16,20 L22,20 Z M11,22 L7,22 L7,30 L11,30 L11,22 Z M21,22 L17,22 L17,30 L21,30 L21,22 Z M42,18 C42.55,18 43,18.45 43,19 L43,27 C43,27.55 42.55,28 42,28 L30,28 C29.45,28 29,27.55 29,27 L29,19 C29,18.45 29.45,18 30,18 L42,18 Z M41,20 L31,20 L31,26 L41,26 L41,20 Z M16,4 C16.552,4 17,4.45 17,5 L17,8 L20,8 C20.552,8 21,8.45 21,9 L21,13 C21,13.55 20.552,14 20,14 L17,14 L17,17 C17,17.55 16.552,18 16,18 L12,18 C11.448,18 11,17.55 11,17 L11,14 L8,14 C7.448,14 7,13.55 7,13 L7,9 C7,8.45 7.448,8 8,8 L11,8 L11,5 C11,4.45 11.448,4 12,4 L16,4 Z M15,6 L13,6 L13,9 C13,9.55 12.552,10 12,10 L9,10 L9,12 L12,12 C12.552,12 13,12.45 13,13 L13,16 L15,16 L15,13 C15,12.45 15.448,12 16,12 L19,12 L19,10 L16,10 C15.448,10 15,9.55 15,9 L15,6 Z" fill="#000" fill-rule="nonzero"/></g></svg>