<svg width="48" height="48" viewBox="0 0 48 48" xmlns="http://www.w3.org/2000/svg"><g fill="none" fill-rule="evenodd"><rect width="48" height="48"/><path d="M1.1238941,33.6692398 C0.544830067,33.6692398 0.06809659,34.107369 0.00710574438,34.6702153 L0.000513902306,34.79262 L0,46.8532026 L0.00512568101,46.978948 C0.0533327736,47.5132354 0.474611328,47.9352285 1.00074051,47.9927873 L1.1238941,47.9994861 L13.1844767,48 L13.3102221,47.9948743 C13.8856086,47.942959 14.3307602,47.4583691 14.3307602,46.8761059 C14.3307602,46.2970419 13.892631,45.8203084 13.3297847,45.7593175 L13.20738,45.7527257 L2.2472743,45.7527257 L2.24778821,34.8155233 L2.24266252,34.6897779 C2.19074719,34.1143914 1.70615727,33.6692398 1.1238941,33.6692398 Z M27.2909184,22.8761059 L27.1651731,22.8812316 C26.6308856,22.9294387 26.2088925,23.3507172 26.1513337,23.8768464 L26.1446349,24 L26.144121,39.5001686 L26.1492467,39.6259139 C26.1974538,40.1602013 26.6187324,40.5821945 27.1448615,40.6397533 L27.2680151,40.6464521 L35.9486803,40.6464521 L35.9486803,45.7527257 L29.7419298,45.7522118 L29.6161844,45.7573375 C29.040798,45.8092528 28.5956463,46.2938427 28.5956463,46.8761059 C28.5956463,47.4551699 29.0337755,47.9319034 29.5966218,47.9928943 L29.7190265,47.9994861 L44.4021913,48 L44.5279366,47.9948743 C45.1033231,47.942959 45.5484748,47.4583691 45.5484748,46.8761059 C45.5484748,46.2970419 45.1103455,45.8203084 44.5474992,45.7593175 L44.4250946,45.7527257 L38.1954407,45.7527257 L38.1954407,40.6464521 L46.8532026,40.646966 L46.978948,40.6418403 C47.5132354,40.5936332 47.9352285,40.1723546 47.9927873,39.6462255 L47.9994861,39.5230719 L48,24.0229033 L47.9948743,23.8971579 C47.9466672,23.3628705 47.5253887,22.9408774 46.9992595,22.8833186 L46.8761059,22.8766198 L27.2909184,22.8761059 Z M45.7527257,25.1233802 L45.7527257,38.3996917 L28.3913953,38.3996917 L28.3913953,25.1233802 L45.7527257,25.1233802 Z M1.1467974,0 L1.02105203,0.00512568101 C0.486764622,0.0533327736 0.0647714636,0.474611328 0.00721268291,1.00074051 L0.000513902306,1.1238941 L0,16.6240627 L0.00512568101,16.749808 C0.0533327736,17.2840954 0.474611328,17.7060886 1.00074051,17.7636474 L1.1238941,17.7703462 L9.80455929,17.7703462 L9.80455929,22.8766198 L3.59780875,22.8761059 L3.47206338,22.8812316 C2.89667694,22.9331469 2.45152525,23.4177368 2.45152525,24 C2.45152525,24.579064 2.88965446,25.0557975 3.4525008,25.1167884 L3.57490545,25.1233802 L18.2580702,25.1238941 L18.3838156,25.1187684 C18.959202,25.0668531 19.4043537,24.5822632 19.4043537,24 C19.4043537,23.420936 18.9662245,22.9442025 18.4033782,22.8832116 L18.2809735,22.8766198 L12.0513197,22.8766198 L12.0513197,17.7703462 L20.7090816,17.7708601 L20.8348269,17.7657344 C21.3691144,17.7175273 21.7911075,17.2962487 21.8486663,16.7701196 L21.8553651,16.646966 L21.855879,1.1467974 L21.8507533,1.02105203 C21.8025462,0.486764622 21.3812676,0.0647714636 20.8551385,0.00721268291 L20.7319849,0.000513902306 L1.1467974,0 Z M19.6086047,2.2472743 L19.6086047,15.5235858 L2.2472743,15.5235858 L2.2472743,2.2472743 L19.6086047,2.2472743 Z M34.8155233,0 L34.6897779,0.00512568101 C34.1143914,0.0570410115 33.6692398,0.541630937 33.6692398,1.1238941 C33.6692398,1.70295814 34.107369,2.17969162 34.6702153,2.24068246 L34.79262,2.2472743 L45.7527257,2.2472743 L45.7522118,13.1844767 L45.7573375,13.3102221 C45.8092528,13.8856086 46.2938427,14.3307602 46.8761059,14.3307602 C47.4551699,14.3307602 47.9319034,13.892631 47.9928943,13.3297847 L47.9994861,13.20738 L48,1.1467974 L47.9948743,1.02105203 C47.9466672,0.486764622 47.5253887,0.0647714636 46.9992595,0.00721268291 L46.8761059,0.000513902306 L34.8155233,0 Z" fill="#000" fill-rule="nonzero"/></g></svg>