<svg width="48" height="48" viewBox="0 0 48 48" xmlns="http://www.w3.org/2000/svg"><g fill="none" fill-rule="evenodd"><rect width="48" height="48"/><path d="M44.83597,22.0352941 L43.4775835,16.5529412 C42.8546299,14.007688 40.5827081,12.218449 37.9737758,12.218449 C35.3648436,12.218449 33.0929217,14.007688 32.4699682,16.5529412 L31.1115817,22.0352941 C31.0037872,22.4621775 30.9487252,22.9007719 30.9476384,23.3411765 C30.936059,26.7092828 33.4678211,29.5376994 36.8027529,29.8823529 L36.8027529,36.9411765 C36.8027529,39.5401635 34.7056137,41.6470588 32.1186613,41.6470588 C29.531709,41.6470588 27.4345698,39.5401635 27.4345698,36.9411765 L27.4345698,14.5882353 C27.4345698,10.6897547 24.2888609,7.52941176 20.4084324,7.52941176 L13.382295,7.52941176 L13.382295,6.35294118 L14.5533179,6.35294118 C15.200056,6.35294118 15.7243408,5.82621735 15.7243408,5.17647059 C15.7243408,4.52672382 15.200056,4 14.5533179,4 L9.86922627,4 C9.22248818,4 8.69820337,4.52672382 8.69820337,5.17647059 C8.69820337,5.82621735 9.22248818,6.35294118 9.86922627,6.35294118 L11.0402492,6.35294118 L11.0402492,7.52941176 L8.37031696,7.52941176 C7.84030534,6.60713408 6.75978355,6.15748519 5.73587974,6.4331157 C4.71197593,6.70874622 4,7.64092782 4,8.70588235 C4,9.77083689 4.71197593,10.7030185 5.73587974,10.978649 C6.75978355,11.2542795 7.84030534,10.8046306 8.37031696,9.88235294 L11.0402492,9.88235294 L11.0402492,11.0588235 L8.69820337,11.0588235 C8.05146528,11.0588235 7.52718047,11.5855474 7.52718047,12.2352941 L7.52718047,14.8941176 C5.32771584,16.4327521 4.0158591,18.9544481 4.01411177,21.6470588 L4.01411177,42.8235294 C4.01411177,43.4732762 4.53839658,44 5.18513467,44 L19.2374095,44 C19.8841475,44 20.4084324,43.4732762 20.4084324,42.8235294 L20.4084324,21.6470588 C20.406685,18.9544481 19.0948283,16.4327521 16.8953637,14.8941176 L16.8953637,12.2352941 C16.8953637,11.5855474 16.3710788,11.0588235 15.7243408,11.0588235 L13.382295,11.0588235 L13.382295,9.88235294 L20.4084324,9.88235294 C22.9953847,9.88235294 25.092524,11.9892482 25.092524,14.5882353 L25.092524,36.9411765 C25.092524,40.8396571 28.2382328,44 32.1186613,44 C35.9990899,44 39.1447987,40.8396571 39.1447987,36.9411765 L39.1447987,29.8823529 C42.4663471,29.5390686 44.9934634,26.7310755 44.9999577,23.3764706 C45.0017494,22.9242567 44.9466648,22.4736241 44.83597,22.0352941 L44.83597,22.0352941 Z M15.1388293,16.5529412 C16.950362,17.6036956 18.0663866,19.5455499 18.0663866,21.6470588 L18.0663866,41.6470588 L6.35615757,41.6470588 L6.35615757,39.2941176 L14.5533179,39.2941176 C15.200056,39.2941176 15.7243408,38.7673938 15.7243408,38.1176471 C15.7243408,37.4679003 15.200056,36.9411765 14.5533179,36.9411765 L6.35615757,36.9411765 L6.35615757,21.6470588 C6.35615757,19.5455499 7.47218211,17.6036956 9.28371482,16.5529412 C9.64385651,16.3440561 9.86671622,15.9589542 9.86922627,15.5411765 L9.86922627,13.4117647 L14.5533179,13.4117647 L14.5533179,15.5411765 C14.5558279,15.9589542 14.7786876,16.3440561 15.1388293,16.5529412 Z M39.1447987,27.4588235 L39.1447987,27.2 C40.0628058,26.6675227 40.5103726,25.5819743 40.2360184,24.5533072 C39.9616642,23.5246401 39.0337991,22.809352 37.9737758,22.809352 C36.9137526,22.809352 35.9858875,23.5246401 35.7115333,24.5533072 C35.4371791,25.5819743 35.8847459,26.6675227 36.8027529,27.2 L36.8027529,27.4588235 C34.7833347,27.140663 33.2937936,25.3947807 33.2896842,23.3411765 C33.2912515,23.0951152 33.3227114,22.8501663 33.3833661,22.6117647 L34.7417526,17.1176471 C35.1213997,15.6361453 36.4510481,14.6006625 37.9737758,14.6006625 C39.4965036,14.6006625 40.8261519,15.6361453 41.205799,17.1176471 L42.5641856,22.6117647 C42.6248402,22.8501663 42.6563002,23.0951152 42.6578674,23.3411765 C42.6537581,25.3947807 41.164217,27.140663 39.1447987,27.4588235 Z" fill="#000" fill-rule="nonzero"/></g></svg>