<svg width="48" height="48" viewBox="0 0 48 48" xmlns="http://www.w3.org/2000/svg"><g fill="none" fill-rule="evenodd"><rect width="48" height="48"/><path d="M19.4042459,0 C21.0935843,0 22.4680453,1.37446415 22.4680453,3.06380634 L22.4678939,10.6904677 L26.5531845,10.6906441 C27.1171422,10.6906441 27.5745244,11.1478069 27.5745244,11.7119863 L27.5745244,15.2754976 C27.5745244,15.8396771 27.1171422,16.2968399 26.5531845,16.2968399 L25.5317916,16.2966856 L25.5319548,26.0208073 C25.5319548,31.3869595 22.0720515,36.0716659 17.1181065,37.4131764 C16.5292739,37.5724871 15.9273071,37.6814424 15.3191519,37.7390207 L15.3192169,37.7873489 C15.3192169,40.0398787 13.4867125,41.8723873 11.2341879,41.8723873 L4.08513921,41.8723873 C2.95887693,41.8723873 2.04256961,42.7885865 2.04256961,43.9149616 C2.04256961,45.0412265 2.95887693,45.9574257 4.08513921,45.9574257 L38.8084919,45.9574257 C39.9347542,45.9574257 40.8509513,45.0412265 40.8509513,43.9149616 C40.8509513,42.7885865 39.9347542,41.8723873 38.8084919,41.8723873 L33.702123,41.8723873 C31.4495984,41.8723873 29.6169838,40.0397685 29.6169838,37.7873489 C29.6169838,35.5349294 31.4495984,33.7023106 33.702123,33.7023106 L46.9786601,33.7023106 C47.5426178,33.7023106 48,34.1594734 48,34.7235426 C48,35.2876118 47.542728,35.7448849 46.9786601,35.7448849 L33.702123,35.7448849 C32.5757505,35.7448849 31.6595534,36.6610841 31.6595534,37.7874592 C31.6595534,38.913724 32.5757505,39.8299232 33.702123,39.8299232 L38.8084919,39.8299232 C41.0610164,39.8299232 42.8935209,41.6626523 42.8935209,43.9150718 C42.8935209,46.1674913 41.0610164,48 38.8084919,48 L4.08513921,48 C1.83261466,48 0,46.1673811 0,43.9149616 C0,41.6625421 1.83250444,39.829813 4.08513921,39.829813 L11.2340777,39.829813 C12.36034,39.829813 13.2766473,38.9136138 13.2766473,37.7873489 L13.2766904,37.7386356 C12.9890596,37.7112884 12.7023346,37.6724508 12.4182016,37.6222501 C9.82280574,37.1640954 7.44981884,35.749624 5.73634397,33.6391586 C4.01294998,31.5165698 3.0637993,28.8109552 3.0637993,26.0208073 L3.06370966,16.2966856 L2.04256961,16.2968399 C1.47850166,16.2968399 1.02133991,15.8396771 1.02133991,15.2754976 L1.02133991,11.7119863 C1.02133991,11.1479171 1.47850166,10.6906441 2.04256961,10.6906441 L6.12760742,10.6904677 L6.12770882,3.06380634 C6.12770882,1.37435393 7.50216981,0 9.19150812,0 C10.8808464,0 12.2553074,1.37446415 12.2553074,3.06380634 L12.2552148,10.6904677 L16.3402865,10.6904677 L16.3404466,3.06380634 C16.3404466,1.37435393 17.7149076,0 19.4042459,0 Z M23.4893852,16.2968399 L5.10624547,16.2968399 L5.10624547,17.8176343 L17.1878711,17.8177769 C17.7519391,17.8177769 18.209211,18.2750499 18.209211,18.8391191 C18.209211,19.4031884 17.7519391,19.8604614 17.1878711,19.8604614 L5.10624547,19.8603629 L5.10624547,26.0208073 C5.10624547,30.7933532 8.33074793,34.8264814 12.7733065,35.6108661 C14.0425145,35.8347083 15.3537135,35.7748628 16.5842368,35.4416894 C20.6498684,34.3407735 23.4893852,30.4665722 23.4893852,26.0208073 L23.4893852,19.8603629 L20.7514844,19.8604614 C20.1874165,19.8604614 19.7301445,19.4031884 19.7301445,18.8391191 C19.7301445,18.2750499 20.1874165,17.8177769 20.7514844,17.8177769 L23.4893852,17.8176343 L23.4893852,16.2968399 Z M14.5152162,23.1633193 C16.552165,23.1633193 18.209211,24.8203692 18.209211,26.8572124 C18.209211,28.8940556 16.5520548,30.5512157 14.5152162,30.5512157 C12.4783777,30.5512157 10.8212214,28.8941658 10.8212214,26.8572124 C10.8212214,24.820259 12.4782675,23.1633193 14.5152162,23.1633193 Z M14.5152162,25.2058936 C13.6046399,25.2058936 12.863791,25.9467442 12.863791,26.8572124 C12.863791,27.7676805 13.6046399,28.5086414 14.5152162,28.5086414 C15.4257925,28.5086414 16.1666414,27.7676805 16.1666414,26.8572124 C16.1666414,25.9467442 15.4257925,25.2058936 14.5152162,25.2058936 Z M25.5319548,12.7333286 L3.06390952,12.7333286 L3.06390952,14.2543758 L25.5319548,14.2543758 L25.5319548,12.7333286 Z M9.19161833,2.04246408 C8.62843209,2.04246408 8.17027842,2.5006188 8.17027842,3.06380634 L8.17014323,10.6904677 L10.212679,10.6904677 L10.212848,3.06380634 C10.212848,2.50072901 9.75469437,2.04246408 9.19161833,2.04246408 Z M19.4043562,2.04246408 C18.8411699,2.04246408 18.3830104,2.5006188 18.3830104,3.06380634 L18.3830104,10.6904677 L20.4255462,10.6904677 L20.4255858,3.06380634 C20.4255858,2.50072901 19.9674322,2.04246408 19.4043562,2.04246408 Z" fill="#000" fill-rule="nonzero"/></g></svg>