<svg width="48" height="48" viewBox="0 0 48 48" xmlns="http://www.w3.org/2000/svg"><g fill="none" fill-rule="evenodd"><rect width="48" height="48"/><path d="M26.9877333,21.3333333 C27.2096,21.3333333 27.4229333,21.4016 27.6053333,21.5306667 C27.7638679,21.6439057 27.8863751,21.7946731 27.9629162,21.968575 C28.0172903,21.8805519 28.0868206,21.8008956 28.16736,21.7322667 C28.4032,21.5328 28.71776,21.4432 29.0238933,21.4922667 C30.5534933,21.7322667 32.01376,22.24 33.3632,23.0005333 C34.68256,23.7429333 35.8538667,24.7018667 36.8448,25.8506667 C37.8421333,27.0069333 38.6206933,28.3147733 39.1594667,29.73664 C39.7162667,31.2074667 39.9989333,32.7584 40,34.3467733 L40,43.37824 C40,44.6123733 39.5189333,45.7739733 38.6464,46.6465067 C37.7728,47.5189333 36.6122667,48 35.3781333,48 L32.5505285,47.9998632 C32.5448074,47.9999543 32.5390756,48 32.5333333,48 L32.516,47.999 L12.6218667,48 C11.3877333,48 10.2272,47.5189333 9.3536,46.6464 C8.48106667,45.7738667 8,44.6123733 8,43.3781333 L8,34.3466667 C8.00106667,32.8437333 8.25493333,31.3716267 8.7552,29.9701333 C9.2384,28.6154667 9.94133333,27.3557333 10.8426667,26.2282667 C11.7365333,25.1093333 12.8,24.1514667 14.0032,23.3802667 C15.2288,22.5952 16.5664,22.0266667 17.9776,21.6896 C18.0597333,21.6704 18.144,21.6597333 18.2272,21.6597333 C18.7221333,21.6597333 19.1488,21.9968 19.264,22.4789333 C19.4005333,23.0506667 19.0453333,23.6277333 18.4736,23.7642667 C13.5605333,24.9386667 10.1312,29.2906667 10.1333333,34.3466667 L10.133,35.199 L16.575,35.199 L26.1173333,21.7813333 C26.3168,21.5008 26.6421333,21.3333333 26.9877333,21.3333333 Z M33.8968404,25.9165525 L26.933,35.199 L28.2666667,35.2 C28.5472,35.2 28.8224,35.3140267 29.0206933,35.5125333 C29.2190933,35.7109333 29.3333333,35.9861333 29.3333333,36.2666667 L29.3333333,41.6 C29.3333333,41.8805333 29.2192,42.1557333 29.0206933,42.3540267 C28.8224,42.5525333 28.5472,42.6666667 28.2666667,42.6666667 L10.133,42.666 L10.1333333,43.3781333 C10.1354667,44.7477333 11.2522667,45.8645333 12.6218667,45.8666667 L31.466,45.866 L31.4666667,33.0666667 C31.4666667,32.4789333 31.9456,32 32.5333333,32 C33.1210667,32 33.6,32.4789333 33.6,33.0666667 L33.6,45.866 L35.3781333,45.8666667 C36.7477333,45.8644267 37.8645333,44.7477333 37.8666667,43.3781333 L37.8666667,34.3466667 C37.8680066,30.9607096 36.3465135,27.9185365 33.8968404,25.9165525 Z M15.057,37.333 L10.1333333,37.3333333 L10.1333333,40.5333333 L12.782,40.533 L15.057,37.333 Z M27.2,37.3333333 L25.333,37.333 L22.933,40.533 L27.2,40.5333333 L27.2,37.3333333 Z M22.666,37.333 L17.676,37.333 L15.4,40.533 L20.266,40.533 L22.666,37.333 Z M27.8810289,22.9744324 L27.856,23.0176 L27.856,23.0176 L19.193,35.199 L24.266,35.199 L32.1157227,24.7346164 C31.0722934,24.1825508 29.9212694,23.7924285 28.6922667,23.5989333 C28.4382933,23.5594667 28.208,23.4293333 28.04256,23.2341333 C27.9761408,23.1550732 27.9219105,23.0675216 27.8810289,22.9744324 Z M23.5328,21.3333333 C24.1205333,21.3333333 24.5994667,21.8122667 24.5994667,22.4 C24.5994667,22.9877333 24.1205333,23.4666667 23.5328,23.4666667 C22.9450667,23.4666667 22.4661333,22.9877333 22.4661333,22.4 C22.4661333,21.8122667 22.9450667,21.3333333 23.5328,21.3333333 Z M24,0 C26.5056,0.00106666667 28.8757333,0.96 30.6740267,2.69973333 C31.5498667,3.54666667 32.24736,4.53653333 32.7476267,5.6416 C33.26496,6.78186667 33.5498667,7.99893333 33.5934933,9.25866667 C33.5957333,9.3152 33.5934933,9.3728 33.5861333,9.42933333 C33.5957333,9.48586667 33.6,9.5424 33.6,9.6 C33.6,10.896 33.3461333,12.1536 32.8448,13.3365333 C32.3616,14.48 31.6692267,15.5061333 30.7882667,16.3882667 C29.9061333,17.2693333 28.88,17.9616 27.73664,18.4458667 C26.5534933,18.9461333 25.2958933,19.2 24,19.2 C22.704,19.2 21.4464,18.9461333 20.2634667,18.4458667 C19.12,17.9616 18.0938667,17.2693333 17.2117333,16.3882667 C16.3306667,15.5061333 15.6384,14.48 15.1541333,13.3365333 C14.6538667,12.1536 14.4,10.896 14.4,9.6 C14.4,8.304 14.6538667,7.0464 15.1541333,5.86346667 C15.6384,4.72 16.3306667,3.69386667 17.2117333,2.81173333 C18.0938667,1.93066667 19.12,1.2384 20.2634667,0.7552 C21.4464,0.253866667 22.704,0 24,0 Z M29.4064982,4.43136975 L17.2341333,11.7333333 C17.1258619,11.7989947 17.0070694,11.8440712 16.8840466,11.8673646 C17.2393344,12.9908398 17.8628262,14.0208796 18.72,14.88 C20.1322667,16.2890667 22.0074667,17.0656 24,17.0666667 C25.9934933,17.0656 27.8677333,16.2890667 29.28,14.88 C30.6890667,13.4677333 31.4666667,11.5925333 31.4666667,9.6 L31.4666667,9.59893333 C31.4666667,9.55413333 31.4698667,9.5104 31.4752,9.46666667 C31.4677333,9.424 31.4634667,9.37813333 31.4624,9.33333333 C31.3957637,7.42258837 30.6267148,5.70775441 29.4064982,4.43136975 Z M24.0021333,2.13333333 L24,2.13333333 C22.0074667,2.13333333 20.1322667,2.91093333 18.72,4.32 C17.3109333,5.73226667 16.5333333,7.60746667 16.5333333,9.6 L16.534,9.665 L27.5820868,3.03639796 C26.5201464,2.4596287 25.3006475,2.13333333 24.0021333,2.13333333 Z" fill="#000" fill-rule="nonzero"/></g></svg>