<svg width="48" height="48" viewBox="0 0 48 48" xmlns="http://www.w3.org/2000/svg"><g fill="none" fill-rule="evenodd"><rect width="48" height="48"/><path d="M17.4833333,0.740348932 C21.7462857,-0.246782977 26.2537143,-0.246782977 30.5166667,0.740348932 L30.5166667,0.740348932 L34.7051429,1.71123176 C34.9204762,1.76079147 35.1050476,1.89647133 35.218381,2.08577316 C35.3317143,2.275075 35.3624762,2.50256219 35.305,2.71623766 L35.305,2.71623766 L33.9676667,7.63646058 C36.41,10.2151904 37.7619048,13.5608769 37.7619048,17.1267386 L37.7619048,17.1267386 L37.7619048,17.493968 C37.7619048,20.0531988 37.2648571,22.5490583 36.2837143,24.9124877 L36.2837143,24.9124877 L33.6519524,31.2512557 C33.5264762,31.5534887 33.231,31.7509151 32.9047619,31.7509151 L32.9047619,31.7509151 L29.6666667,31.7509151 L29.6666667,31.5283026 C29.406,31.7176044 29.1364286,31.893907 28.8571429,32.0563979 L28.8571429,32.0563979 L28.8571429,35.8131863 L35.3333333,35.8131863 C38.4572857,35.8131863 41,38.3642926 41,41.500366 L41,41.500366 L41,47.1875458 C41,47.6360205 40.6381429,48 40.1904762,48 L40.1904762,48 L7.80952381,48 C7.36185714,48 7,47.6360205 7,47.1875458 L7,47.1875458 L7,41.500366 C7,38.3642926 9.54271429,35.8131863 12.6666667,35.8131863 L12.6666667,35.8131863 L19.1428571,35.8131863 L19.1428571,32.0572103 C18.8635714,31.893907 18.594,31.7176044 18.3333333,31.5291151 L18.3333333,31.5291151 L18.3333333,31.7509151 L15.0952381,31.7509151 C14.769,31.7509151 14.4735238,31.5534887 14.3480476,31.2512557 L14.3480476,31.2512557 L11.7162857,24.9124877 C10.7351429,22.5490583 10.2380952,20.0531988 10.2380952,17.493968 C10.2380952,13.9037326 11.6337143,10.3858057 14.0614762,7.74532945 L14.0614762,7.74532945 L12.695,2.71623766 C12.6375238,2.50256219 12.6674762,2.27426255 12.7808095,2.08496071 C12.8941429,1.89565887 13.0787143,1.76079147 13.2940476,1.7104193 L13.2940476,1.7104193 Z M35.3333333,37.4380948 L34.4630952,37.4380948 C34.1708571,40.391366 32.3267619,42.9806577 29.5679048,44.1668409 L29.5679048,44.1668409 L28.3657619,44.6843742 C28.0387143,44.8257413 27.655,44.7347464 27.4250952,44.4576995 L27.4250952,44.4576995 L24.8095238,41.3070019 L24.8095238,46.3750915 L39.3809524,46.3750915 L39.3809524,41.500366 C39.3809524,39.2604297 37.5651905,37.4380948 35.3333333,37.4380948 L35.3333333,37.4380948 Z M13.5360952,37.4380948 L12.6666667,37.4380948 C10.4348095,37.4380948 8.61904762,39.2604297 8.61904762,41.500366 L8.61904762,41.500366 L8.61904762,46.3750915 L23.1904762,46.3750915 L23.1904762,41.3070019 L20.5749048,44.4576995 C20.4170476,44.6478138 20.1871429,44.750183 19.952381,44.750183 C19.8447143,44.750183 19.7362381,44.7290592 19.6334286,44.6843742 L19.6334286,44.6843742 L18.4312857,44.1668409 C15.6724286,42.9814701 13.8283333,40.391366 13.5360952,37.4380948 L13.5360952,37.4380948 Z M17.626619,37.4380948 L15.1551429,37.4380948 C15.4392857,39.7397777 16.9069524,41.7441023 19.068381,42.67355 L19.068381,42.67355 L19.7168095,42.9522218 L22.2716667,39.8754575 L20.7619048,39.8754575 C20.5538571,39.8754575 20.3522857,39.8518964 20.1555714,39.813711 C20.0908095,39.8015242 20.0309048,39.7812128 19.9677619,39.7649638 C19.836619,39.7316531 19.7087143,39.6942802 19.5848571,39.645533 C19.5160476,39.6179095 19.4496667,39.5862238 19.3832857,39.5545381 C19.2715714,39.5017286 19.1639048,39.4432319 19.0594762,39.3782355 C18.9955238,39.3392377 18.934,39.2994275 18.8740952,39.2555549 C18.7720952,39.1816216 18.677381,39.1003762 18.5842857,39.0150685 C18.5340952,38.9687586 18.4822857,38.9256985 18.4345238,38.8761388 C18.3300952,38.7672699 18.2361905,38.6502765 18.1479524,38.5275959 C18.1228571,38.4926604 18.0929048,38.4617871 18.0694286,38.4260392 C17.9617619,38.2651732 17.8702857,38.0937454 17.7925714,37.9150054 C17.7707143,37.8646333 17.7577619,37.8101988 17.7383333,37.7590142 C17.6986667,37.6533952 17.6549524,37.549401 17.626619,37.4380948 L17.626619,37.4380948 Z M32.8456667,37.4380948 L30.3741905,37.4380948 C30.3458571,37.5485886 30.3021429,37.6533952 30.2624762,37.7590142 C30.2430476,37.8110113 30.2300952,37.8646333 30.2082381,37.9150054 C30.1305238,38.0945578 30.0382381,38.2651732 29.931381,38.4260392 C29.9079048,38.4617871 29.8779524,38.4926604 29.8528571,38.5275959 C29.764619,38.6494641 29.6707143,38.7672699 29.5662857,38.8761388 C29.5193333,38.9256985 29.4667143,38.9687586 29.4165238,39.0150685 C29.3242381,39.1003762 29.2287143,39.1816216 29.1267143,39.2555549 C29.066,39.298615 29.0044762,39.3384253 28.9413333,39.3782355 C28.8369048,39.4432319 28.7292381,39.5009161 28.6175238,39.5545381 C28.5511429,39.5862238 28.4847619,39.6179095 28.4159524,39.645533 C28.2920952,39.6942802 28.163381,39.7316531 28.0330476,39.7649638 C27.9699048,39.7804004 27.9091905,39.8015242 27.8452381,39.813711 C27.6477143,39.8518964 27.4461429,39.8754575 27.2380952,39.8754575 L27.2380952,39.8754575 L25.7283333,39.8754575 L28.284,42.9522218 L28.9324286,42.67355 C31.0938571,41.7441023 32.5615238,39.7397777 32.8456667,37.4380948 L32.8456667,37.4380948 Z M27.2372857,32.8152301 C27.1911429,32.8322917 27.143381,32.8428536 27.0964286,32.8591027 C26.9474762,32.9094748 26.7969048,32.9557847 26.6447143,32.9988448 C26.500619,33.0394675 26.3565238,33.0768404 26.2108095,33.1109635 C26.0691429,33.1442741 25.9274762,33.1767723 25.783381,33.2035833 C25.6206667,33.2336441 25.4579524,33.2563928 25.2944286,33.2783291 C25.1600476,33.2970155 25.0272857,33.3181393 24.8912857,33.3303261 C24.664619,33.3514499 24.4379524,33.3603869 24.2104762,33.3652617 C24.1400476,33.3668866 24.0712381,33.3758236 24,33.3758236 C23.9287619,33.3758236 23.8599524,33.3668866 23.7895238,33.3652617 C23.5620476,33.3603869 23.335381,33.3514499 23.1087143,33.3303261 C22.9727143,33.3173269 22.8399524,33.296203 22.7055714,33.2783291 C22.5420476,33.2563928 22.3785238,33.2336441 22.216619,33.2035833 C22.0725238,33.1767723 21.9308571,33.1442741 21.7891905,33.1109635 C21.6434762,33.0768404 21.499381,33.04028 21.3552857,32.9988448 C21.2030952,32.9557847 21.0525238,32.9094748 20.9027619,32.8591027 C20.856619,32.8428536 20.8080476,32.8322917 20.7619048,32.8152301 L20.7619048,32.8152301 L20.7619048,36.6256405 C20.7619048,37.0741153 20.4000476,37.4380948 19.952381,37.4380948 L19.952381,37.4380948 L19.3670952,37.4380948 C19.374381,37.4502816 19.3792381,37.4624684 19.3865238,37.4738428 C19.4488571,37.5753996 19.5192857,37.6704567 19.6018571,37.7557644 C19.6067143,37.7606391 19.6107619,37.7671388 19.615619,37.7720135 C19.7038571,37.8597585 19.8034286,37.9345043 19.9094762,38.0011256 C19.9402381,38.0206245 19.9734286,38.0368736 20.0058095,38.0539351 C20.0875714,38.0978076 20.173381,38.1343681 20.2632381,38.1636164 C20.2996667,38.1758033 20.3352857,38.1888025 20.3725238,38.1977395 C20.498,38.2286128 20.6267143,38.250549 20.7619048,38.250549 L20.7619048,38.250549 L27.2380952,38.250549 C27.3732857,38.250549 27.502,38.2286128 27.6258571,38.1977395 C27.6630952,38.1879901 27.6987143,38.1758033 27.7351429,38.1636164 C27.8241905,38.1343681 27.9108095,38.0978076 27.9925714,38.0539351 C28.0249524,38.0368736 28.0581429,38.0206245 28.0889048,38.0011256 C28.1949524,37.9353168 28.2953333,37.860571 28.3827619,37.7720135 C28.3884286,37.7671388 28.3916667,37.7606391 28.3965238,37.7557644 C28.4790952,37.6704567 28.5495238,37.5753996 28.6118571,37.4738428 C28.6191429,37.461656 28.6248095,37.4494692 28.6312857,37.4380948 L28.6312857,37.4380948 L28.0468095,37.4380948 C27.5991429,37.4380948 27.2372857,37.0741153 27.2372857,36.6256405 L27.2372857,36.6256405 Z M27.2097619,14.1645304 L26.3395238,15.957617 C25.7688095,18.0854346 23.8526667,19.5641014 21.6491429,19.5641014 L21.6491429,19.5641014 L15.9047619,19.5641014 L15.9047619,23.6263726 C15.9047619,26.7957566 17.727,29.5402271 20.3717143,30.8791517 C20.6242857,31.006707 20.8817143,31.1196381 21.1431905,31.2187575 C21.1877143,31.2358191 21.2330476,31.2520682 21.278381,31.2683172 C21.5301429,31.3584997 21.7851429,31.4356828 22.0425714,31.5006792 C22.0838571,31.5112411 22.1243333,31.5226154 22.165619,31.5323649 C22.4521905,31.5989861 22.7411905,31.6517957 23.0318095,31.6867312 C23.0423333,31.6883561 23.0520476,31.6907935 23.0617619,31.6916059 C23.6850952,31.7647268 24.3157143,31.7647268 24.9390476,31.6916059 C24.9495714,31.689981 24.9592857,31.6883561 24.969,31.6867312 C25.259619,31.6517957 25.548619,31.5997986 25.8351905,31.5323649 C25.8764762,31.5226154 25.9169524,31.5112411 25.9582381,31.5006792 C26.2156667,31.4364953 26.4706667,31.3584997 26.7224286,31.2683172 C26.7677619,31.2520682 26.8130952,31.2358191 26.857619,31.2187575 C27.1190952,31.1188257 27.3765238,31.0058945 27.6290952,30.8783392 C30.273,29.5402271 32.0952381,26.7957566 32.0952381,23.6263726 L32.0952381,23.6263726 L32.0952381,19.5559768 C30.3029524,19.5112918 28.7551429,18.2999226 28.2872381,16.5612705 L28.2872381,16.5612705 L27.2097619,14.1645304 Z M33.4625238,9.49779326 L32.8764286,11.6540468 C32.8189524,11.8652849 32.6789048,12.0440249 32.4886667,12.1504564 C32.4020476,12.1983912 32.3081429,12.2235773 32.2134286,12.237389 C32.1931905,12.2398263 32.1745714,12.2430762 32.1543333,12.2447011 C32.1340952,12.246326 32.1146667,12.2520132 32.0952381,12.2520132 C32.0167143,12.2520132 31.939,12.2406388 31.8620952,12.2170776 C26.7167619,10.6685398 21.2808095,10.6685398 16.1362857,12.2170776 C15.9290476,12.2796366 15.7031905,12.255263 15.5113333,12.1496439 C15.3210952,12.0432124 15.1810476,11.8644725 15.1235714,11.6532344 L15.1235714,11.6532344 L14.5722857,9.62534857 C12.8334286,11.8579728 11.8571429,14.6544404 11.8571429,17.493968 C11.8571429,19.837086 12.3129048,22.1233322 13.2106667,24.2877104 L13.2106667,24.2877104 L15.6351905,30.1260066 L16.7798571,30.1260066 C15.2344762,28.3987288 14.2857143,26.1246694 14.2857143,23.6263726 L14.2857143,23.6263726 L14.2857143,19.5641014 L13.4761905,19.5641014 L13.4761905,17.9391929 L21.6491429,17.9391929 C23.1378571,17.9391929 24.4298571,16.9268749 24.7917143,15.478269 C24.8046667,15.4238345 24.8240952,15.371025 24.848381,15.3198404 L24.848381,15.3198404 L26.5103333,11.8969706 C26.6479524,11.6134241 26.9215714,11.4411838 27.2502381,11.4403714 C27.5635238,11.4452461 27.8468571,11.6312981 27.9755714,11.9189069 L27.9755714,11.9189069 L29.7905238,15.9568045 C29.8115714,16.000677 29.8269524,16.0461745 29.8382857,16.0932968 C30.1094762,17.1795482 31.0784762,17.9391929 32.1948095,17.9391929 L32.1948095,17.9391929 L34.5238095,17.9391929 L34.5238095,19.5641014 L33.7142857,19.5641014 L33.7142857,23.6263726 C33.7142857,26.1246694 32.7655238,28.3987288 31.2201429,30.1260066 L31.2201429,30.1260066 L32.3648095,30.1260066 L34.7893333,24.2877104 C35.6870952,22.1233322 36.1428571,19.8378985 36.1428571,17.493968 L36.1428571,17.493968 L36.1428571,17.1267386 C36.1428571,14.3164594 35.1997619,11.6556717 33.4625238,9.49779326 L33.4625238,9.49779326 Z M30.152381,2.32382226 C26.1258095,1.39112478 21.8709524,1.39112478 17.8468095,2.32382226 L17.8468095,2.32382226 L14.4775714,3.10296588 L15.7388095,7.74207963 L15.7388095,7.74207963 L16.4698095,10.4329281 C17.0874762,10.2655625 17.7091905,10.1193208 18.3333333,9.9942028 C22.0781905,9.24187017 25.9201905,9.24187017 29.6650476,9.9942028 C30.2891905,10.1193208 30.9109048,10.2655625 31.5285714,10.4329281 L31.5285714,10.4329281 L33.5208095,3.10377834 Z M24.8095238,3.31501644 L24.8095238,4.93992493 L26.4285714,4.93992493 L26.4285714,6.56483343 L24.8095238,6.56483343 L24.8095238,8.18974192 L23.1904762,8.18974192 L23.1904762,6.56483343 L21.5714286,6.56483343 L21.5714286,4.93992493 L23.1904762,4.93992493 L23.1904762,3.31501644 L24.8095238,3.31501644 Z" fill="#000" fill-rule="nonzero"/></g></svg>