<svg width="48" height="48" viewBox="0 0 48 48" xmlns="http://www.w3.org/2000/svg"><g fill="none" fill-rule="evenodd"><rect width="48" height="48"/><path d="M24,1 C34.48,1 43.5368,8.90644828 45.288,19.4713793 C46.9044794,20.0138536 47.994343,21.5150352 48,23.2068966 L48,23.2068966 L48,32.7241379 C47.9973551,34.9131456 46.2080425,36.6870331 44,36.6896552 L44,36.6896552 L42.4,36.6896552 C42.0199513,36.6838988 41.6427298,36.6237966 41.28,36.5112069 C38.2552605,40.7196205 33.7886116,43.6924843 28.7144,44.8744828 C28.4119786,46.1185823 27.2908388,46.9964934 26,47 L26,47 L22,47 C20.4536027,47 19.2,45.7572042 19.2,44.2241379 C19.2,42.6910716 20.4536027,41.4482759 22,41.4482759 L22,41.4482759 L26,41.4482759 C27.1718438,41.453211 28.2166319,42.1810744 28.6184,43.2724138 C33.1368006,42.1509713 37.1138841,39.4908106 39.8544,35.7569655 C38.9375629,35.0116952 38.4042262,33.89954 38.4,32.7241379 L38.4,32.7241379 L38.4,23.2068966 C38.4038193,22.0846565 38.8900708,21.0172592 39.7368,20.2724138 C38.3856,12.4206897 31.6968,6.55172414 24,6.55172414 C16.3032,6.55172414 9.6136,12.4206897 8.2624,20.2724138 C9.10917424,21.0172992 9.595672,22.0845983 9.6,23.2068966 L9.6,23.2068966 L9.6,32.7241379 C9.59735511,34.9131456 7.80804252,36.6870331 5.6,36.6896552 L5.6,36.6896552 L4,36.6896552 C1.79195748,36.6870331 0.00264489307,34.9131456 0,32.7241379 L0,32.7241379 L0,23.2068966 C0.00565695459,21.5150352 1.09552062,20.0138536 2.712,19.4713793 C4.4632,8.90644828 13.52,1 24,1 Z M26,43.0344828 L22,43.0344828 C21.3372583,43.0344828 20.8,43.5671095 20.8,44.2241379 C20.8,44.8811663 21.3372583,45.4137931 22,45.4137931 L22,45.4137931 L26,45.4137931 C26.6627417,45.4137931 27.2,44.8811663 27.2,44.2241379 C27.2,43.5671095 26.6627417,43.0344828 26,43.0344828 L26,43.0344828 Z M5.6,20.8275862 L4,20.8275862 C2.6745166,20.8275862 1.6,21.8928397 1.6,23.2068966 L1.6,23.2068966 L1.6,32.7241379 C1.6,34.0381947 2.6745166,35.1034483 4,35.1034483 L4,35.1034483 L5.6,35.1034483 C6.9254834,35.1034483 8,34.0381947 8,32.7241379 L8,32.7241379 L8,23.2068966 C8,21.8928397 6.9254834,20.8275862 5.6,20.8275862 L5.6,20.8275862 Z M44,20.8275862 L42.4,20.8275862 C41.0745166,20.8275862 40,21.8928397 40,23.2068966 L40,23.2068966 L40,32.7241379 C40,34.0381947 41.0745166,35.1034483 42.4,35.1034483 L42.4,35.1034483 L44,35.1034483 C45.3254834,35.1034483 46.4,34.0381947 46.4,32.7241379 L46.4,32.7241379 L46.4,23.2068966 C46.4,21.8928397 45.3254834,20.8275862 44,20.8275862 L44,20.8275862 Z M44.8,28.7586207 L44.8,30.3448276 L41.6,30.3448276 L41.6,28.7586207 L44.8,28.7586207 Z M6.4,28.7586207 L6.4,30.3448276 L3.2,30.3448276 L3.2,28.7586207 L6.4,28.7586207 Z M44.8,24.7931034 L44.8,26.3793103 L41.6,26.3793103 L41.6,24.7931034 L44.8,24.7931034 Z M6.4,24.7931034 L6.4,26.3793103 L3.2,26.3793103 L3.2,24.7931034 L6.4,24.7931034 Z M24,23.2068966 C24.8836556,23.2068966 25.6,23.9170656 25.6,24.7931034 C25.6,25.6691413 24.8836556,26.3793103 24,26.3793103 C23.1163444,26.3793103 22.4,25.6691413 22.4,24.7931034 C22.4,23.9170656 23.1163444,23.2068966 24,23.2068966 Z M16,23.2068966 C16.8836556,23.2068966 17.6,23.9170656 17.6,24.7931034 C17.6,25.6691413 16.8836556,26.3793103 16,26.3793103 C15.1163444,26.3793103 14.4,25.6691413 14.4,24.7931034 C14.4,23.9170656 15.1163444,23.2068966 16,23.2068966 Z M32,23.2068966 C32.8836556,23.2068966 33.6,23.9170656 33.6,24.7931034 C33.6,25.6691413 32.8836556,26.3793103 32,26.3793103 C31.1163444,26.3793103 30.4,25.6691413 30.4,24.7931034 C30.4,23.9170656 31.1163444,23.2068966 32,23.2068966 Z M24,2.5862069 C14.4664,2.5862069 6.2128,9.68448276 4.3928,19.2413793 L4.3928,19.2413793 L5.6,19.2413793 C6.00644735,19.2468297 6.40960435,19.3145134 6.7952,19.4420345 C8.4944,11.1247586 15.7128,4.96551724 24,4.96551724 C32.2912,4.96551724 39.5056,11.1231724 41.2048,19.4420345 C41.5903956,19.3145134 41.9935527,19.2468297 42.4,19.2413793 L42.4,19.2413793 L43.6072,19.2413793 C41.7872,9.68448276 33.5336,2.5862069 24,2.5862069 Z" fill="#000" fill-rule="nonzero"/></g></svg>