<svg width="48" height="48" viewBox="0 0 48 48" xmlns="http://www.w3.org/2000/svg"><g fill="none" fill-rule="evenodd"><rect width="48" height="48"/><path d="M23.9832629,4 C31.8740805,4 38.3010951,10.4318916 38.3010951,18.3287879 C38.3010951,20.343736 37.8781641,22.2603175 37.1237504,24.0022667 L37.1237504,24.0022667 L43.8027981,35.4078639 C44.3789716,36.3964037 43.6188013,37.6280079 42.4775961,37.5549585 L42.4775961,37.5549585 L35.7678514,37.1277696 L32.8579722,43.1893537 C32.3620339,44.2203793 30.9172434,44.279505 30.3386843,43.2927093 L30.3386843,43.2927093 L24.1088081,32.6549455 C18.4729894,32.6549455 15.3501877,30.2968797 12.5111304,26.8643447 L12.5111304,26.8643447 L8.0221592,34.531357 L13.0105255,34.2130561 C13.59127,34.1760025 14.1364322,34.4951754 14.3887367,35.0199588 L14.3887367,35.0199588 L16.5676714,39.5542817 L19.4133709,34.7965935 C19.817918,34.1189782 20.6946914,33.8977429 21.3718981,34.3024022 C22.0496762,34.7082909 22.2696552,35.587614 21.8629226,36.2652293 L21.8629226,36.2652293 L17.6557246,43.3040312 C17.0714947,44.281778 15.6350748,44.2163338 15.1420219,43.1895252 L15.1420219,43.1895252 L12.2321427,37.1279412 L5.52239802,37.55513 C4.38119276,37.6281937 3.62103681,36.3965753 4.19719605,35.4080355 L4.19719605,35.4080355 L10.856717,24.033159 C10.0938184,22.28299 9.6654165,20.3558727 9.6654165,18.3289595 C9.6654165,10.4320631 16.0924454,4 23.9832629,4 Z M35.4748937,26.8363972 C33.4778559,29.5308046 30.5697766,31.5014942 27.2028125,32.2809212 L27.2028125,32.2809212 L31.4462642,39.5263342 L33.6112431,35.0199302 C33.8635476,34.4951468 34.4087098,34.1760025 34.9894543,34.2130275 L34.9894543,34.2130275 L39.9778206,34.5313284 Z M23.9832487,6.8591617 C17.6364121,6.8591617 12.5222864,11.9772221 12.5222864,18.3289595 C12.5222864,24.6807111 17.6364121,29.8015591 23.9832487,29.8015591 C30.3300994,29.8015591 35.4442109,24.6807111 35.4442109,18.3289595 C35.4442109,11.9772221 30.3300994,6.8591617 23.9832487,6.8591617 Z M29.6942159,12.5773135 C30.0175655,12.5686163 30.3342911,12.6700073 30.5925687,12.8648964 C30.8955774,13.0934383 31.0952803,13.4332365 31.14762,13.8093267 C31.1999597,14.185417 31.1006353,14.5668945 30.8715591,14.8696 L30.8715591,14.8696 L24.3208464,23.5417639 C24.0674743,23.8776365 23.679106,24.084731 23.2592258,24.1078652 C22.8393456,24.1309995 22.4306079,23.9678233 22.1419246,23.6618165 L22.1419246,23.6618165 L17.2316794,18.4574049 C16.9714843,18.1816221 16.8314686,17.8136607 16.8424572,17.4345284 C16.8534457,17.0553962 17.0145376,16.6961754 17.2902681,16.4359496 C17.8637797,15.8955566 18.7661702,15.921787 19.3073739,16.4945821 L19.3073739,16.4945821 L23.0598054,20.4704845 L28.5894115,13.144103 C28.8520991,12.7965161 29.2588716,12.5878326 29.6942159,12.5773135 Z" fill="#000" fill-rule="nonzero"/></g></svg>